<svg viewBox="0 0 2045.49 2170.16" xmlns="http://www.w3.org/2000/svg" xmlns:xlink="http://www.w3.org/1999/xlink"><clipPath id="a"><path d="m536.88 1142a24.39 24.39 0 1 1 -24.39-24.39 24.39 24.39 0 0 1 24.39 24.39z"/></clipPath><clipPath id="b"><path d="m683.7 1081.71a24.39 24.39 0 1 1 -24.38-24.39 24.38 24.38 0 0 1 24.38 24.39z"/></clipPath><clipPath id="c"><path d="m1529.27 2055.61h254.93l-6-287.54s-127.79-170.41-127.79-205.9-42.62-220.1-14.21-262.71c22.7-34 71.12-106.76 85.39-159.83 0-.1 0-.2 0-.31 2.74-10.24 4.17-19.73 3.91-28.07 13.75-160.85-138.37-212.53-138.37-212.53 50.23 70.83 50.38 133.07 38.94 176.54-.2.2-.4.35-.59.55a185.21 185.21 0 0 1 -10.82 31.14 164.68 164.68 0 0 1 -18.6 31.32l-1 1.2-.12.15c-16.12 19.59-39.57 33.92-72.45 25-78.12-21.3-671-103-720.66-216.55-32.09-73.37-46.42-120.66-52.55-145a445.28 445.28 0 0 0 -16.16-50.79l-30.18-78.62a128.56 128.56 0 0 0 -94.57-79.94l-40.56-8.18c-36.58-7.38-74.64-5.2-109.68 7.64-20.28 7.43-37.85 17.54-52.31 32-56.79 56.8-44.67 121.61-158.19 132-141.21 12.82-97.11 75.82-91.47 109.4 19.94 118.66 231.77 71.16 267.27 156.42s49.27 205.23 76.79 290.71c27.21 84.49 123.78 118.4 191.7 163.29 64.06 42.32 49.7 120.69 49.7 191.69v276.91s-120.54-6.68-114.46 110h215.11c8.64-24 34.25-81.65 34.25-81.65l56.79-454.4 397.6 21.3s213 205.91 255.59 255.6 78.12 120.7 42.62 163.3c-30.24 36.25-81.05 16.72-99.85 95.86z"/></clipPath><clipPath id="d"><path d="m810.43 990.81a24.39 24.39 0 1 1 -24.43-24.39 24.39 24.39 0 0 1 24.43 24.39z"/></clipPath><clipPath id="e"><circle cx="446.99" cy="724.69" r="434.71" transform="matrix(.70710678 -.70710678 .70710678 .70710678 -381.51 528.32)"/></clipPath><clipPath id="f"><path d="m813.57 1257.67c.27-2.28.64-4.44.71-6.61a2.54 2.54 0 0 0 -1.27-1.8c-3-1.59-3.9-4.1-3.63-7.24.15-1.71.37-3.43.6-5.14a7 7 0 0 1 7.83-6.37q7 .65 14 1.65c4.36.63 6.69 3.79 6.24 8.12-.17 1.63-.4 3.27-.58 4.9-.36 3.28-1.91 5.51-5.25 6.38-.62.16-1 1-1.53 1.62-.09.1-.05.3-.07.46-.79 5.76-.75 5.63 4.79 7.36a76.22 76.22 0 0 1 30.73 18.73c1.75-1.32 3.59-2.61 5.3-4a1.93 1.93 0 0 0 .38-1.72c-1.08-3.17-.07-5.69 2.28-7.8 1.75-1.56 3.53-3.11 5.4-4.52a7.06 7.06 0 0 1 9.88 1.17q4.51 5.57 8.78 11.33c2.54 3.45 2.1 7-1.12 9.82-1.76 1.55-3.63 3-5.52 4.37a6.9 6.9 0 0 1 -7.54.53 2.45 2.45 0 0 0 -3.11.43c-1.42 1.21-2.94 2.3-4.55 3.54 10.3 17.2 13.67 35.59 9.38 55.08a72.31 72.31 0 0 1 -23.41 39.45 74.17 74.17 0 0 1 -121.65-70.89c7.02-33.52 36.08-58.52 72.93-58.85zm57.06 80.93a57.73 57.73 0 1 0 -64.19 50.49 57.47 57.47 0 0 0 64.19-50.49z"/></clipPath><clipPath id="g"><path d="m618.52 1433.05a345.84 345.84 0 0 1 -52.18-4 338.69 338.69 0 0 1 -223.26-135.05c-53.95-73.38-74.65-155.24-60.9-245.27l63.35 1.75a275.42 275.42 0 0 0 544.47 83.33l17.79-129.75 64.93 8.9-17.89 130.51a341.11 341.11 0 0 1 -336.33 289.58z"/></clipPath><linearGradient id="h" gradientTransform="matrix(.86663562 .49894158 -.49894158 .86663562 395.45 -289.39)" gradientUnits="userSpaceOnUse" x1="59.04" x2="1419.04" y1="595.02" y2="595.02"><stop offset=".27" stop-color="#fff"/><stop offset=".28" stop-color="#fdfafa" stop-opacity=".96"/><stop offset=".31" stop-color="#f6e4e2" stop-opacity=".78"/><stop offset=".34" stop-color="#efcecb" stop-opacity=".61"/><stop offset=".38" stop-color="#e9bbb7" stop-opacity=".47"/><stop offset=".41" stop-color="#e3aba6" stop-opacity=".34"/><stop offset=".46" stop-color="#df9e97" stop-opacity=".23"/><stop offset=".51" stop-color="#db938c" stop-opacity=".15"/><stop offset=".56" stop-color="#d88a83" stop-opacity=".08"/><stop offset=".63" stop-color="#d6847d" stop-opacity=".03"/><stop offset=".73" stop-color="#d58179" stop-opacity=".01"/><stop offset="1" stop-color="#d58078" stop-opacity="0"/></linearGradient><linearGradient id="i" gradientTransform="matrix(.86663562 .49894158 -.49894158 .86663562 483.36 -248.58)" x1="26.66" x2="1386.66" xlink:href="#h" y1="779.85" y2="779.85"/><ellipse cx="1159.26" cy="2065.81" fill="#d6d5d5" opacity=".49" rx="886.22" ry="104.35"/><path d="m1413.59 973.31-365.84-60.84 36.89-207.67a55.23 55.23 0 0 1 64-44.71l635.86 87.14z" fill="#30414a"/><path d="m1477.56 1189.84-614.8-134.11 33.51-153.64a112.92 112.92 0 0 1 134.38-86.25l504.48 110z" fill="#4f697a"/><path d="m1493.82 1038.93c-13.28 64.6-17.16 118.39-8.66 120.13s26.14-49.21 39.42-113.81 17.16-118.39 8.67-120.14-26.16 49.21-39.43 113.82z" fill="#30414a" fill-rule="evenodd"/><path d="m983 612.39c-2 10-8.52 31.08-28.11 40.16a.82.82 0 0 0 .06 1.54c5.81 1.77 21 8.79 28.83 35a.84.84 0 0 0 1.62-.11c1.58-8.77 7.63-29.34 30-34.8a.83.83 0 0 0 0-1.59c-7.66-2.47-25.75-11.3-30.76-40.2a.82.82 0 0 0 -1.64 0z" fill="#f79d7a"/><path d="m222.69 1179.62c-2 10-8.52 31.08-28.12 40.16a.82.82 0 0 0 .06 1.54c5.82 1.77 21 8.79 28.84 35a.83.83 0 0 0 1.61-.11c1.58-8.77 7.63-29.34 30-34.8a.83.83 0 0 0 0-1.59c-7.66-2.47-25.74-11.3-30.76-40.2a.82.82 0 0 0 -1.63 0z" fill="#f79d7a"/><path d="m1332 2056.6c18.34-86.28 69.84-63.56 100.39-101.93 35.5-44.63 0-120-42.6-172.1-37.28-45.57-205.21-216.57-246.41-258.47h309.52c.5 5.49.82 10 .82 13 0 37.2 127.79 215.71 127.79 215.71l6 303.78z" fill="#ad8c77"/><path d="m778.65 2056.6h-245.95c12.3-112.4 113.39-105.39 113.39-105.39v-350.45c0-50.54 2.57-106.61-4.87-153.24l214.1 2.71-53 536.92s-13.06 37.12-23.67 69.45z" fill="#ad8c77"/><path d="m1529.27 2055.61h254.93l-6-287.54s-127.79-170.41-127.79-205.9-42.62-220.1-14.21-262.71c22.7-34 71.12-106.76 85.39-159.83 0-.1 0-.2 0-.31 2.74-10.24 4.17-19.73 3.91-28.07 13.75-160.85-138.37-212.53-138.37-212.53 50.23 70.83 50.38 133.07 38.94 176.54-.2.2-.4.35-.59.55a185.21 185.21 0 0 1 -10.82 31.14 164.68 164.68 0 0 1 -18.6 31.32l-1 1.2-.12.15c-16.12 19.59-39.57 33.92-72.45 25-78.12-21.3-671-103-720.66-216.55-32.09-73.37-46.42-120.66-52.55-145a445.28 445.28 0 0 0 -16.16-50.79l-30.18-78.62a128.56 128.56 0 0 0 -94.57-79.94l-40.56-8.18c-36.58-7.38-74.64-5.2-109.68 7.64-20.28 7.43-37.85 17.54-52.31 32-56.79 56.8-44.67 121.61-158.19 132-141.21 12.82-97.11 75.82-91.47 109.4 19.94 118.66 231.77 71.16 267.27 156.42s49.27 205.23 76.79 290.71c27.21 84.49 123.78 118.4 191.7 163.29 64.06 42.32 49.7 120.69 49.7 191.69v276.91s-120.54-6.68-114.46 110h215.11c8.64-24 34.25-81.65 34.25-81.65l56.79-454.4 397.6 21.3s213 205.91 255.59 255.6 78.12 120.7 42.62 163.3c-30.24 36.25-81.05 16.72-99.85 95.86z" fill="#e1b392"/><path d="m584.17 641.64s143.51 63.6 82.5 211c0 0-3.44-35.25-13-36.13s-29.26 132.8-128.46 128.64-75.83-117.35-75.83-117.35 57.46-117.53 29-151.69l-18-39.3s49.26-15.68 123.79 4.83z" fill="#a47d62"/><path d="m145.58 801s-9.36 47.19 22.11 42.82c0 0 61.17-21.85 59.43-48.07s-9.36-33.59-9.36-33.59-56.7-8.41-72.18 38.84z" fill="#8e664a"/><circle cx="446.99" cy="724.69" fill="#7e9098" opacity=".23" r="434.71" transform="matrix(.70710678 -.70710678 .70710678 .70710678 -381.51 528.32)"/><path d="m447 1106s211.1-33.66 341.7-189l66.62 79.55s-149.69 167.71-392.23 200z" fill="#484055"/><path d="m545.49 1142a33 33 0 1 1 -33-33 33 33 0 0 1 33 33z" fill="#010101" opacity=".18"/><path d="m536.88 1142a24.39 24.39 0 1 1 -24.39-24.39 24.39 24.39 0 0 1 24.39 24.39z" fill="#dcd5c5"/><g clip-path="url(#a)" fill="#fff"><path d="m487.74 1143.2h54.57v4.3h-54.57z" transform="matrix(.80592828 -.59201318 .59201318 .80592828 -578.11 527.17)"/><path d="m482.67 1136.51h54.57v4.3h-54.57z" transform="matrix(.81 -.59 .59 .81 -574.72 522.15)"/></g><path d="m692.31 1081.71a33 33 0 1 1 -33-33 33 33 0 0 1 33 33z" fill="#010101" opacity=".18"/><path d="m683.7 1081.71a24.39 24.39 0 1 1 -24.38-24.39 24.38 24.38 0 0 1 24.38 24.39z" fill="#dcd5c5"/><g clip-path="url(#b)" fill="#fff"><path d="m634.56 1082.9h54.57v4.3h-54.57z" transform="matrix(.80623815 -.59159111 .59159111 .80623815 -513.62 601.69)"/><path d="m629.5 1076.21h54.56v4.3h-54.56z" transform="matrix(.80623815 -.59159111 .59159111 .80623815 -510.68 597.48)"/></g><g clip-path="url(#c)"><path d="m635.56 1453.38a345.72 345.72 0 0 1 -52.17-4 338.69 338.69 0 0 1 -223.27-135.1c-53.94-73.38-74.65-155.24-60.9-245.27l63.35 1.75a275.42 275.42 0 0 0 544.49 83.36l17.79-129.76 64.93 8.91-17.89 130.5a341.13 341.13 0 0 1 -336.33 289.59z" fill="#ad8c77" opacity=".37"/></g><path d="m819 990.81a33 33 0 1 1 -33-33 33 33 0 0 1 33 33z" fill="#010101" opacity=".18"/><path d="m810.43 990.81a24.39 24.39 0 1 1 -24.43-24.39 24.39 24.39 0 0 1 24.43 24.39z" fill="#dcd5c5"/><g clip-path="url(#d)" fill="#fff"><path d="m761.29 992h54.57v4.3h-54.57z" transform="matrix(.80613488 -.59173182 .59173182 .80613488 -435.42 659.45)"/><path d="m756.23 985.32h54.57v4.3h-54.57z" transform="matrix(.80613488 -.59173182 .59173182 .80613488 -432.45 655.16)"/></g><path d="m1470.26 911.74-50.11 233.54-75.28-13.93 50.62-235.92z" fill="#7e9098" fill-rule="evenodd"/><path d="m1413.26 1123.71a7.1 7.1 0 0 1 -8.4 5.43l-43.52-9.34a7.07 7.07 0 0 1 -5.42-8.39 7.1 7.1 0 0 1 8.39-5.44l43.52 9.34a7.1 7.1 0 0 1 5.43 8.4z" fill="#e7dfca" fill-rule="evenodd"/><path d="m1420.51 1091.24a7.09 7.09 0 0 1 -8.4 5.42l-43.51-9.33a7.09 7.09 0 0 1 -5.43-8.4 7.09 7.09 0 0 1 8.39-5.43l43.52 9.34a7.09 7.09 0 0 1 5.43 8.4z" fill="#e7dfca" fill-rule="evenodd"/><path d="m1427.76 1058.76a7.09 7.09 0 0 1 -8.39 5.43l-43.52-9.34a7.08 7.08 0 0 1 -5.43-8.39 7.08 7.08 0 0 1 8.4-5.43l43.51 9.33a7.1 7.1 0 0 1 5.43 8.4z" fill="#e7dfca" fill-rule="evenodd"/><path d="m1435 1026.28a7.09 7.09 0 0 1 -8.39 5.43l-43.52-9.33a7.1 7.1 0 0 1 -5.43-8.4 7.1 7.1 0 0 1 8.4-5.43l43.51 9.34a7.07 7.07 0 0 1 5.43 8.39z" fill="#e7dfca" fill-rule="evenodd"/><path d="m1442.26 993.81a7.09 7.09 0 0 1 -8.39 5.43l-43.52-9.34a7.09 7.09 0 0 1 -5.43-8.39 7.09 7.09 0 0 1 8.4-5.43l43.51 9.33a7.1 7.1 0 0 1 5.43 8.4z" fill="#e7dfca" fill-rule="evenodd"/><path d="m1449.52 961.33a7.09 7.09 0 0 1 -8.4 5.43l-43.52-9.33a7.09 7.09 0 0 1 -5.42-8.4 7.08 7.08 0 0 1 8.39-5.43l43.51 9.34a7.09 7.09 0 0 1 5.44 8.39z" fill="#e7dfca" fill-rule="evenodd"/><path d="m1456.76 928.86a7.09 7.09 0 0 1 -8.39 5.43l-43.51-9.29a7.1 7.1 0 0 1 -5.44-8.4 7.09 7.09 0 0 1 8.4-5.42l43.52 9.33a7.09 7.09 0 0 1 5.42 8.35z" fill="#e7dfca" fill-rule="evenodd"/><g clip-path="url(#e)"><path d="m755.56 422.36-63.71 46s106.84 82.64 124.54 275.34l114.83-50.7s16.61-215.56-171.3-270.62" fill="#7e9098"/></g><path d="m844.46 717.61c0 8.15-6 14.75-13.43 14.75s-13.44-6.6-13.44-14.75 6-14.75 13.44-14.75 13.43 6.61 13.43 14.75z" fill="#4e6971"/><path d="m881.83 692.05c0 8.14-6 14.75-13.44 14.75s-13.39-6.61-13.39-14.75 6-14.75 13.44-14.75 13.39 6.6 13.39 14.75z" fill="#4e6971"/><path d="m749.93 451.34a11.23 11.23 0 1 1 -13.31 8.66 11.24 11.24 0 0 1 13.31-8.66z" fill="#e7dfca"/><path d="m744.84 448.25h4.35v28.48h-4.35z" fill="#7e9098" transform="matrix(.76503381 -.64399012 .64399012 .76503381 -122.32 589.73)"/><path d="m971.08 848.27c0 4.25-5.8 7.7-13 7.7s-12.94-3.45-12.94-7.7 5.8-7.7 12.94-7.7 13 3.43 13 7.7z" fill="#394e5a"/><path d="m1010.74 822.59c0 4.25-5.8 7.7-13 7.7s-12.94-3.45-12.94-7.7 5.79-7.7 12.94-7.7 13 3.44 13 7.7z" fill="#394e5a"/><path d="m838.06 632.23a11.22 11.22 0 1 1 -13.3 8.66 11.21 11.21 0 0 1 13.3-8.66z" fill="#e7dfca"/><path d="m832.98 629.13h4.35v28.48h-4.35z" fill="#7e9098" transform="matrix(.76503381 -.64399012 .64399012 .76503381 -218.1 688.92)"/><path d="m957.7 850.07a7.36 7.36 0 0 1 -7.37-7.36 118.59 118.59 0 0 0 -118.44-118.45 7.37 7.37 0 1 1 0-14.73c73.43 0 133.18 59.74 133.18 133.18a7.37 7.37 0 0 1 -7.37 7.36z" fill="#30414a"/><path d="m997 824.86a7.37 7.37 0 0 1 -7.37-7.37 118.57 118.57 0 0 0 -118.48-118.44 7.37 7.37 0 0 1 0-14.74c73.43 0 133.18 59.75 133.18 133.18a7.37 7.37 0 0 1 -7.33 7.37z" fill="#30414a"/><path d="m1109.21 832.98-42.5 154.68 225.77 54.43 38.46-160.74" fill="#394e5a"/><path d="m439.65 290.96v-262.27h-17.45v261.63" fill="#7e728d"/><path d="m458.33 28.69a28.69 28.69 0 1 1 -28.69-28.69 28.7 28.7 0 0 1 28.69 28.69z" fill="#f79d7a"/><path d="m1265 1010.79 8.4-34.79a7.16 7.16 0 0 1 8.63-5.27 7.16 7.16 0 0 1 5.27 8.63l-8.41 34.79a7.16 7.16 0 0 1 -8.63 5.27 7.16 7.16 0 0 1 -5.26-8.63z" fill="#e7dfca"/><path d="m973.43 1522.49 116.89 5.48 90.36-430.6-106.25-25.03z" fill="#ad8c77" opacity=".37"/><path d="m1291.28 954.53a6.23 6.23 0 1 1 -6.22-6.23 6.23 6.23 0 0 1 6.22 6.23z" fill="#7e9098"/><path d="m1296.53 932.89a6.23 6.23 0 1 1 -6.23-6.22 6.23 6.23 0 0 1 6.23 6.22z" fill="#7e9098"/><path d="m1301.77 911.26a6.23 6.23 0 1 1 -6.23-6.22 6.22 6.22 0 0 1 6.23 6.22z" fill="#d58078"/><path d="m950.93 1521.47 116.94 5.3 91.12-434.2-105.81-26.82z" fill="#30414a"/><path d="m1110.47 833.69 13.29-62.58 78.59 83.02z" fill="#7e9098"/><path d="m1123.11 825.86 6.84-32.22 40.45 42.26z" fill="#e7dfca"/><path d="m1201.29 853.78 14.23-61.69 78.6 82.09z" fill="#7e9098"/><path d="m1214.88 846.83 6.83-32.21 40.45 42.25z" fill="#e7dfca"/><path d="m1294.44 873.89 13.28-62.58 78.6 82.09z" fill="#7e9098"/><path d="m1307.08 866.06 6.84-32.21 40.45 42.25z" fill="#e7dfca"/><path d="m1386.64 894 13.29-62.59 78.59 82.09z" fill="#7e9098"/><path d="m1399.28 886.16 6.84-32.21 40.45 42.25z" fill="#e7dfca"/><path d="m1138.49 839.64-26.68 105.18a15.61 15.61 0 0 0 11.48 19l84 20.13a15.6 15.6 0 0 0 18.87-11.82l23.66-107.42z" fill="#e7dfca"/><path d="m618.52 1433.05a345.84 345.84 0 0 1 -52.18-4 338.69 338.69 0 0 1 -223.26-135.05c-53.95-73.38-74.65-155.24-60.9-245.27l63.35 1.75a275.42 275.42 0 0 0 544.47 83.33l17.79-129.75 64.93 8.9-17.89 130.51a341.11 341.11 0 0 1 -336.33 289.58z" fill="#4f697a"/><path d="m1199.75 972.81-45.22-10.6 23.68-101.06 45 10.56a13.66 13.66 0 0 1 10.19 16.41l-17.5 74.65a13.46 13.46 0 0 1 -16.15 10.04z" fill="#d58078"/><path d="m1160.11 910c-6.76 27.88-9.26 51.21-5.6 52.09s12.12-21 18.88-48.88 9.27-51.21 5.6-52.1-12.12 20.96-18.88 48.89z" fill="#f79d7a" fill-rule="evenodd"/><path d="m920.65 1026.16-15.08 110a291.28 291.28 0 0 1 -287.2 247 296.08 296.08 0 0 1 -44.51-3.39 289.06 289.06 0 0 1 -150.86-71.23l-21.31 26.68a322.93 322.93 0 0 0 167 78.31 331 331 0 0 0 49.8 3.8c69.25 0 135.62-21.88 191.91-63.27a322.77 322.77 0 0 0 128.83-212.72l15.77-102.85z" fill="#d58078"/><path d="m415.68 1324.38c-5.78 7.68-12.11 12.67-14.13 11.15s1-9 6.82-16.66 12.12-12.68 14.13-11.16-1.03 8.99-6.82 16.67z" fill="#f79d7a"/><path d="m455.64 1361.37a4.06 4.06 0 1 1 -4.06-4.07 4.05 4.05 0 0 1 4.06 4.07z" fill="#e7dfca"/><path d="m564.6 1384.76a4.07 4.07 0 1 1 -4.06-4.07 4.06 4.06 0 0 1 4.06 4.07z" fill="#e7dfca"/><path d="m607.86 1404.86a4.07 4.07 0 1 1 -4.06-4.06 4.06 4.06 0 0 1 4.06 4.06z" fill="#e7dfca"/><path d="m689.88 1389.78a6.56 6.56 0 1 1 -6.55-6.55 6.56 6.56 0 0 1 6.55 6.55z" fill="#e7dfca"/><path d="m787 1358.54a4.06 4.06 0 1 1 -4.06-4.06 4.06 4.06 0 0 1 4.06 4.06z" fill="#e7dfca"/><path d="m859.38 1280.32a4.06 4.06 0 1 1 -4.06-4.06 4.06 4.06 0 0 1 4.06 4.06z" fill="#e7dfca"/><path d="m921.81 1196.51a8.63 8.63 0 1 1 -8.63-8.63 8.63 8.63 0 0 1 8.63 8.63z" fill="#e7dfca"/><path d="m813.57 1257.67c.27-2.28.64-4.44.71-6.61a2.54 2.54 0 0 0 -1.27-1.8c-3-1.59-3.9-4.1-3.63-7.24.15-1.71.37-3.43.6-5.14a7 7 0 0 1 7.83-6.37q7 .65 14 1.65c4.36.63 6.69 3.79 6.24 8.12-.17 1.63-.4 3.27-.58 4.9-.36 3.28-1.91 5.51-5.25 6.38-.62.16-1 1-1.53 1.62-.09.1-.05.3-.07.46-.79 5.76-.75 5.63 4.79 7.36a76.22 76.22 0 0 1 30.73 18.73c1.75-1.32 3.59-2.61 5.3-4a1.93 1.93 0 0 0 .38-1.72c-1.08-3.17-.07-5.69 2.28-7.8 1.75-1.56 3.53-3.11 5.4-4.52a7.06 7.06 0 0 1 9.88 1.17q4.51 5.57 8.78 11.33c2.54 3.45 2.1 7-1.12 9.82-1.76 1.55-3.63 3-5.52 4.37a6.9 6.9 0 0 1 -7.54.53 2.45 2.45 0 0 0 -3.11.43c-1.42 1.21-2.94 2.3-4.55 3.54 10.3 17.2 13.67 35.59 9.38 55.08a72.31 72.31 0 0 1 -23.41 39.45 74.17 74.17 0 0 1 -121.65-70.89c7.02-33.52 36.08-58.52 72.93-58.85zm57.06 80.93a57.73 57.73 0 1 0 -64.19 50.49 57.47 57.47 0 0 0 64.19-50.49z" fill="#4f697a"/><path d="m870.63 1338.6a57.73 57.73 0 1 1 -50.52-64.14 57.74 57.74 0 0 1 50.52 64.14zm-19.79-39.71-2.21 1.43c-8.17 5.38-16.37 10.72-24.49 16.18a3.59 3.59 0 0 1 -4.21.3c-9.18-4.61-21.38 1.6-23.13 11.67-1.15 6.64 1.68 13.57 7.1 17 5.81 3.65 11.88 3.9 17.7.28 6.61-4.11 9-10 7.41-17.49a3 3 0 0 1 1.06-3.22c5.74-5.54 11.42-11.16 17.11-16.75 2-2 4.07-4 5.9-5.85zm-31.84-14.39a4.37 4.37 0 0 0 -4.9 3.66 4.36 4.36 0 0 0 8.63 1.19 4.38 4.38 0 0 0 -3.73-4.85zm38.47 48.85a4.58 4.58 0 0 0 -4.83 3.78 4.39 4.39 0 0 0 8.72 1 4.56 4.56 0 0 0 -3.94-4.78zm-49.88 46.4a4.51 4.51 0 0 0 4.9-3.7 4.36 4.36 0 0 0 -8.63-1.18 4.49 4.49 0 0 0 3.68 4.88zm-16.72-81.23a4.38 4.38 0 1 0 -4.84 3.81 4.71 4.71 0 0 0 4.79-3.81zm-16.68 28.29a4.45 4.45 0 0 0 -4-4.64 4.5 4.5 0 0 0 -4.75 3.84 4.38 4.38 0 0 0 8.73.8zm1.07 31.87a4.28 4.28 0 1 0 8.5 1 4.18 4.18 0 0 0 -3.62-4.66 4.22 4.22 0 0 0 -4.93 3.66zm64.61 11.73a4.22 4.22 0 0 0 4.7-3.83 4.39 4.39 0 0 0 -3.74-4.65 4.46 4.46 0 0 0 -4.84 3.77 4.32 4.32 0 0 0 3.83 4.71z" fill="#30414a"/><path d="m850.84 1298.89 2.24 3.52c-1.83 1.82-3.86 3.85-5.9 5.85-5.69 5.59-11.37 11.21-17.11 16.75a3 3 0 0 0 -1.06 3.22c1.58 7.45-.8 13.38-7.41 17.49-5.82 3.62-11.89 3.37-17.7-.28-5.42-3.4-8.25-10.33-7.1-17 1.75-10.07 14-16.28 23.13-11.67a3.59 3.59 0 0 0 4.21-.3c8.12-5.46 16.32-10.8 24.49-16.18z" fill="#7e9098"/><path d="m819 1284.5a4.38 4.38 0 0 1 3.73 4.85 4.36 4.36 0 0 1 -8.63-1.19 4.37 4.37 0 0 1 4.9-3.66z" fill="#fff0db"/><path d="m857.42 1333.35a4.56 4.56 0 0 1 3.89 4.75 4.39 4.39 0 0 1 -8.72-1 4.58 4.58 0 0 1 4.83-3.75z" fill="#fff0db"/><path d="m807.54 1379.75a4.49 4.49 0 0 1 -3.73-4.88 4.36 4.36 0 0 1 8.63 1.18 4.51 4.51 0 0 1 -4.9 3.7z" fill="#fff0db"/><path d="m790.82 1298.52a4.38 4.38 0 0 1 -8.71-1 4.38 4.38 0 0 1 8.71 1z" fill="#fff0db"/><path d="m774.14 1326.81a4.38 4.38 0 0 1 -8.73-.8 4.5 4.5 0 0 1 4.75-3.84 4.45 4.45 0 0 1 3.98 4.64z" fill="#fff0db"/><path d="m775.21 1358.68a4.22 4.22 0 0 1 4.88-3.61 4.18 4.18 0 0 1 3.62 4.66 4.28 4.28 0 1 1 -8.5-1z" fill="#fff0db"/><path d="m839.82 1370.41a4.32 4.32 0 0 1 -3.88-4.71 4.46 4.46 0 0 1 4.84-3.77 4.39 4.39 0 0 1 3.74 4.65 4.22 4.22 0 0 1 -4.7 3.83z" fill="#fff0db"/><g clip-path="url(#f)"><path d="m866.13 1279.73 12.3 16.82 33-14.38-25.56-41.62-26.49 17.04z" fill="#30414a"/></g><path d="m41.83 534c-3 14.61-12.45 45.41-41.08 58.67a1.2 1.2 0 0 0 .09 2.33c8.49 2.58 30.61 12.85 42.12 51.2a1.22 1.22 0 0 0 2.36-.15c2.31-12.82 11.15-42.87 43.76-50.84a1.21 1.21 0 0 0 0-2.32c-11.19-3.62-37.61-16.51-44.93-58.74a1.2 1.2 0 0 0 -2.32-.15z" fill="#645973"/><path d="m1752.44 866c-1.6 7.89-6.72 24.52-22.18 31.68a.64.64 0 0 0 0 1.21c4.58 1.4 16.52 6.94 22.74 27.65a.65.65 0 0 0 1.27-.09c1.25-6.92 6-23.14 23.63-27.44a.65.65 0 0 0 0-1.26c-6-2-20.3-8.91-24.26-31.71a.64.64 0 0 0 -1.2-.04z" fill="#7e9098"/><path d="m478.76 1493.85c-1.6 7.89-6.72 24.52-22.18 31.68a.65.65 0 0 0 .05 1.22c4.59 1.39 16.53 6.93 22.75 27.64a.66.66 0 0 0 1.27-.08c1.25-6.92 6-23.15 23.63-27.45a.66.66 0 0 0 0-1.26c-6-1.95-20.31-8.91-24.26-31.71a.65.65 0 0 0 -1.26-.04z" fill="#7e9098"/><path d="m1543.06 713.24-12.76 81.61-253.18-36.45 14.51-79.27z" fill="#4f697a"/><path d="m1048.94 1447.2a18.74 18.74 0 1 1 -18.74-18.73 18.74 18.74 0 0 1 18.74 18.73z" fill="#7e9098"/><path d="m1059.28 1388.49a18.74 18.74 0 1 1 -18.74-18.74 18.73 18.73 0 0 1 18.74 18.74z" fill="#4f697a"/><g fill="#e7dfca"><path d="m1300.57 687.44a2.52 2.52 0 1 1 -2.52-2.51 2.51 2.51 0 0 1 2.52 2.51z"/><path d="m1298.88 702.41a2.52 2.52 0 1 1 -2.52-2.52 2.52 2.52 0 0 1 2.52 2.52z"/><path d="m1296.36 718.46a2.51 2.51 0 1 1 -2.51-2.51 2.51 2.51 0 0 1 2.51 2.51z"/><path d="m1293.85 735a2.52 2.52 0 1 1 -2.51-2.51 2.52 2.52 0 0 1 2.51 2.51z"/><path d="m1291.34 751.57a2.52 2.52 0 1 1 -2.52-2.52 2.52 2.52 0 0 1 2.52 2.52z"/><path d="m1309.5 755.23a2.52 2.52 0 1 1 -2.52-2.52 2.52 2.52 0 0 1 2.52 2.52z"/><path d="m1328.37 759.1a2.51 2.51 0 1 1 -2.51-2.51 2.51 2.51 0 0 1 2.51 2.51z"/><path d="m1348.15 761.62a2.52 2.52 0 1 1 -2.52-2.52 2.52 2.52 0 0 1 2.52 2.52z"/><path d="m1367.81 764.89a2.52 2.52 0 1 1 -2.51-2.51 2.52 2.52 0 0 1 2.51 2.51z"/><path d="m1386.82 767.41a2.52 2.52 0 1 1 -2.52-2.52 2.51 2.51 0 0 1 2.52 2.52z"/><path d="m1407.14 770.85a2.52 2.52 0 1 1 -2.51-2.51 2.51 2.51 0 0 1 2.51 2.51z"/><path d="m1426.8 773.31a2.51 2.51 0 1 1 -2.51-2.52 2.51 2.51 0 0 1 2.51 2.52z"/><path d="m1446.46 776.8a2.51 2.51 0 1 1 -2.5-2.51 2.5 2.5 0 0 1 2.5 2.51z"/><path d="m1464.33 779a2.52 2.52 0 1 1 -2.51-2.52 2.52 2.52 0 0 1 2.51 2.52z"/><path d="m1481.7 781.94a2.52 2.52 0 1 1 -2.52-2.52 2.51 2.51 0 0 1 2.52 2.52z"/><path d="m1499.61 784.45a2.51 2.51 0 1 1 -2.51-2.51 2.51 2.51 0 0 1 2.51 2.51z"/><path d="m1522.23 787a2.52 2.52 0 1 1 -2.51-2.51 2.52 2.52 0 0 1 2.51 2.51z"/><path d="m1526.16 772.38a2.52 2.52 0 1 1 -2.51-2.52 2.51 2.51 0 0 1 2.51 2.52z"/><path d="m1528.67 758a2.51 2.51 0 1 1 -2.51-2.51 2.51 2.51 0 0 1 2.51 2.51z"/><path d="m1532.33 740.86a2.51 2.51 0 1 1 -2.51-2.51 2.51 2.51 0 0 1 2.51 2.51z"/><path d="m1536.87 722.23a2.52 2.52 0 1 1 -2.52-2.51 2.52 2.52 0 0 1 2.52 2.51z"/></g><path d="m1047 1263.43h19.15v81.64h-19.15z" fill="#7e9098" transform="matrix(.97890307 .2043252 -.2043252 .97890307 288.73 -188.34)"/><path d="m432.69 724.69a34.68 34.68 0 1 1 -34.69-34.69 34.68 34.68 0 0 1 34.69 34.69z" fill="#e7dfca"/><path d="m384.34 724.69a13.46 13.46 0 1 1 -13.46-13.46 13.46 13.46 0 0 1 13.46 13.46z" fill="#484055"/><path d="m403.22 292.73 18.98-28.84h17.45l17.32 26.22z" fill="#7e728d"/><g clip-path="url(#g)" opacity=".14"><path d="m278.05 1125.35 72.73 23.44s11.11-88.51 8.74-92l-2.36-3.53-89.84-10.61z" fill="#f2f3f3"/></g><path d="m345.62 1051.15c-.17 3.57-14.56 5.8-32.15 5s-31.71-4.36-31.54-7.92 14.55-5.8 32.14-5 31.71 4.36 31.55 7.92z" fill="#7e9098"/><path d="m1325 1240.39a72.77 72.77 0 0 1 -42.22-13.81c-17.54-12.41-27.71-29.89-31.1-41.09l10-3c2.91 9.6 11.75 24.68 27.12 35.56 11.62 8.22 30.73 16.43 55.77 8.86a66.5 66.5 0 0 0 44.43-82.91l10-3a77 77 0 0 1 -51.43 96 78 78 0 0 1 -22.57 3.39z" fill="#7e9098"/><path d="m1221.51 1106.09-28.19 131.83a30.26 30.26 0 0 0 24.47 36.14l33.07 5.66 34.2-162.16" fill="#4f697a"/><path d="m1253 1165.18h-23l-11.54 20 11.54 20h23l11.53-20zm-11.84 29a9 9 0 1 1 9-9 9 9 0 0 1 -8.97 9.01z" fill="#7e9098"/><g clip-path="url(#e)"><path d="m-28.17 564.74h1534.43v60.57h-1534.43z" fill="url(#h)" opacity=".19" transform="matrix(.86663562 -.49894158 .49894158 .86663562 -198.32 448.1)"/></g><g clip-path="url(#e)"><path d="m-60.55 749.57h1534.43v60.57h-1534.43z" fill="url(#i)" opacity=".19" transform="matrix(.86663562 -.49894158 .49894158 .86663562 -294.86 456.6)"/></g><path d="m1253.72 1140.43a6.23 6.23 0 1 1 -6.22-6.23 6.22 6.22 0 0 1 6.22 6.23z" fill="#e7dfca"/><path d="m1239.27 1229.33a6.23 6.23 0 1 1 -6.22-6.23 6.22 6.22 0 0 1 6.22 6.23z" fill="#e7dfca"/><path d="m1387.87 1134.52h10.49v9.38h-10.49z" fill="#7e9098" transform="matrix(.96240785 -.27160843 .27160843 .96240785 -257 421.1)"/><path d="m234.66 944.28s46.12-8.28 95.34-46.87c0 0-23.92 37.69-85.21 50.14" fill="#533d38" opacity=".37"/><path d="m1374.57 917.46c-.34 1.08-.66 2.14-1 3.18 0 .1-.34.18-.5.15q-1.58-.19-3.15-.45a.73.73 0 0 0 -.85.33 19.88 19.88 0 0 1 -1.2 1.69.82.82 0 0 0 -.1 1.06c.56 1 1.07 2.1 1.62 3.19l-2.87 2.11c-.89-.86-1.77-1.69-2.62-2.55a.74.74 0 0 0 -.89-.2c-.73.27-1.47.48-2.19.76a.64.64 0 0 0 -.37.43c-.23 1.24-.43 2.48-.65 3.8-1.11 0-2.22 0-3.32 0-.1 0-.26-.19-.28-.31-.22-1.12-.42-2.25-.6-3.38a.56.56 0 0 0 -.44-.52c-.77-.22-1.54-.48-2.31-.73a.53.53 0 0 0 -.66.15c-.85.91-1.73 1.8-2.62 2.72l-3-2.12c.53-1.08 1-2.14 1.57-3.18a.85.85 0 0 0 -.11-1.11c-.46-.56-.88-1.16-1.3-1.75a.49.49 0 0 0 -.57-.24c-1.09.19-2.2.34-3.29.52-.35.06-.55 0-.66-.39-.24-.84-.53-1.66-.82-2.49-.12-.32-.08-.49.26-.66 1-.49 1.93-1 2.9-1.52a.6.6 0 0 0 .39-.67c0-.73 0-1.48 0-2.22a.69.69 0 0 0 -.46-.77c-1.09-.52-2.15-1.1-3.27-1.67.34-1.08.66-2.14 1-3.18 0-.1.34-.18.5-.16q1.59.19 3.15.45a.71.71 0 0 0 .85-.33 17.44 17.44 0 0 1 1.24-1.72.79.79 0 0 0 0-1c-.55-1-1.06-2.09-1.61-3.18l2.87-2.12c.89.86 1.77 1.69 2.62 2.55a.72.72 0 0 0 .89.2c.73-.27 1.47-.48 2.2-.75a.7.7 0 0 0 .36-.43c.23-1.24.43-2.49.65-3.81h3.33c.09 0 .25.18.28.31.21 1.12.41 2.24.59 3.37a.56.56 0 0 0 .45.53c.77.22 1.54.47 2.3.73a.54.54 0 0 0 .66-.16c.85-.9 1.73-1.79 2.63-2.71l3 2.11c-.53 1.09-1 2.15-1.56 3.19a.82.82 0 0 0 .07 1.07c.49.58.9 1.22 1.37 1.81a.57.57 0 0 0 .48.2c1.12-.15 2.23-.32 3.35-.51.34 0 .54 0 .65.4.25.85.54 1.7.83 2.53.12.31.06.45-.22.59-1 .5-2 1-3 1.55a.62.62 0 0 0 -.38.66v2.22a.71.71 0 0 0 .46.78c1.17.5 2.24 1.08 3.35 1.65zm-11-3.42a5.65 5.65 0 1 0 -5.64 5.62 5.67 5.67 0 0 0 5.61-5.66z" fill="#7e9098" fill-rule="evenodd"/></svg>