<svg enable-background="new 0 0 563 350" viewBox="0 0 563 350" xmlns="http://www.w3.org/2000/svg" xmlns:xlink="http://www.w3.org/1999/xlink"><clipPath id="a"><path d="m208.89 135.68c-16.63-2.68-32.94 8.37-38.49 26.07l-12.33 39.41c-5.63 18.03 2.97 37.21 19.22 42.84 1.56.54 3.15.94 4.78 1.2l31.17 5.02c16.93 2.74 33.1-10.19 36.13-28.87.29-1.79.45-3.6.48-5.41l.64-41.29c.3-18.56-11.72-34.19-28.36-36.87z"/></clipPath><clipPath id="b"><path d="m273.16 119.42-4.36-3.77c4.26-26.98-14.17-52.31-41.15-56.56-24.99-3.94-48.93 11.61-55.48 36.04l-5.54 1.66c-2.22.67-3.8 2.65-3.94 4.96l-.33 5.82c-.16 2.33 1.16 4.52 3.31 5.45l5.19 2.24c3.88 27.06 28.95 45.85 56.01 41.98 14.4-2.06 27.17-10.36 34.9-22.68l5.65.07c2.33.03 4.43-1.4 5.25-3.58l2.07-5.51c.81-2.16.18-4.6-1.58-6.12z"/></clipPath><mask id="c" height="36.12" maskUnits="userSpaceOnUse" width="38.27" x="95.13" y="4.48"><path clip-rule="evenodd" d="m100.18 3.87 33.62 5.7-5.67 33.39-33.62-5.71z" fill="#fff" fill-rule="evenodd"/></mask><mask id="d" height="38.27" maskUnits="userSpaceOnUse" width="36.12" x="98.63" y="23.82"><path clip-rule="evenodd" d="m101.98 23.2 33.38 5.67-5.7 33.62-33.39-5.67z" fill="#fff" fill-rule="evenodd"/></mask><mask id="e" height="36.12" maskUnits="userSpaceOnUse" width="38.27" x="77.27" y="27.17"><path clip-rule="evenodd" d="m82.54 24.81 33.62 5.71-5.67 33.38-33.62-5.71z" fill="#fff" fill-rule="evenodd"/></mask><mask id="f" height="38.27" maskUnits="userSpaceOnUse" width="36.12" x="75.94" y="5.96"><path clip-rule="evenodd" d="m81.03 5.56 33.39 5.67-5.71 33.61-33.38-5.66z" fill="#fff" fill-rule="evenodd"/></mask><path d="m238.48 232.9c9.28-1.83 19.17-.61 28.1 2.31 8.95 2.93 17.88 8.06 23.33 15.95 5.56 8.06 7.54 20.24.78 28.25-3.74 4.43-9.45 6.93-15.21 5.39-5.08-1.36-8.68-5.52-10.9-10.11-5.49-11.32-2.64-24.81 5.65-33.98 8.97-9.94 23.8-14.9 36.79-11.07 6.22 1.83 11.89 5.32 17.53 8.44s11.46 6.2 17.77 7.7c11.34 2.68 23.11-.84 32.07-8.03 8.08-6.49 13.59-15.85 16.62-25.67 3.08-9.98 3.72-20.84 1.51-31.06-.52-2.39-1.2-4.73-2.06-7.01-.84-2.23-4.45-1.26-3.6.99 3.69 9.79 4.1 20.66 1.92 30.84-2.19 10.23-7 20.1-14.73 27.28-8.3 7.72-20.09 11.74-31.27 8.92-13.14-3.31-23.45-13.47-36.66-16.51-13.82-3.18-29.26 2.14-38.65 12.67-8.81 9.88-12.1 23.91-7 36.33 2.12 5.16 5.62 10.08 10.74 12.6 5.66 2.79 12.39 2.33 17.65-1.14 5.39-3.56 8.95-9.5 9.64-15.9.55-5.14-.28-10.44-2.29-15.19-3.97-9.4-12.34-16.21-21.41-20.44-9.35-4.36-19.93-6.6-30.25-6.04-2.36.13-4.73.42-7.05.87-2.37.48-1.37 4.08.98 3.61z" fill="#505150"/><path d="m205.62 136.06c5.9-.07 9.79.42 10.84.57l2.73.39-4.73 32.33-2.4-.3-3.13.04.04-.29c-.9-.04-1.99-.06-3.26-.05-7.42.09-18.95 1.44-31.71 7.39-15.77 7.35-29.05 19.71-39.47 36.74-2.89 4.92-8.23 8.02-13.95 8.09-2.96.03-5.87-.74-8.44-2.24-7.8-4.55-10.43-14.6-5.88-22.4.11-.18.22-.36.33-.54 21.66-35.4 49.99-49.66 69.94-55.4 12.05-3.43 22.47-4.25 29.09-4.33z" fill="#ece5e0"/><ellipse cx="121.94" cy="213.77" fill="#fff" opacity=".4" rx="3.1" ry="1.81" transform="matrix(.9999 -.0116 .0116 .9999 -2.476 1.4315)"/><path d="m205.98 177.53c6.22 2.27 16.25 5.18 28.74 6.2 20.65 1.72 52.16-1.59 85-27.1.17-.13.33-.26.5-.39 7.02-5.68 8.1-16.02 2.42-23.03-1.87-2.31-4.33-4.06-7.1-5.07-5.37-1.96-11.46-.95-15.9 2.64-15.76 12.24-32.55 19.11-49.9 20.42-14.05 1.06-25.31-1.75-32.28-4.29-1.19-.43-2.2-.84-3.03-1.2l.14-.25-2.94-1.07-2.14-1.13-15.85 28.58 2.43 1.33c.91.51 4.41 2.35 9.91 4.36z" fill="#ece5e0"/><path d="m131.69 297.39 31.99-114.2 6.71-21.44c5.55-17.7 21.87-28.75 38.5-26.07l13.24 2.1c16.64 2.68 28.66 18.31 28.36 36.87l-8.32 144.18c-.19 10.9-9.19 19.58-20.09 19.39s-19.58-9.19-19.39-20.09l.36-58.72c-.31-3.57-3.01-6.48-6.55-7.05s-7.01 1.34-8.43 4.64l-18.69 52.12c-3.24 10.41-14.3 16.23-24.71 12.99-10.4-3.24-16.21-14.31-12.98-24.72z" fill="#ede7e2"/><path d="m194.53 163.13-7.89-1.27c-1.78-.29-3.46.92-3.74 2.7l-1.27 7.89c-.29 1.78.92 3.46 2.7 3.74l7.89 1.27c1.78.29 3.46-.92 3.74-2.7l1.27-7.89c.29-1.78-.92-3.46-2.7-3.74z" fill="#ff6c37"/><g clip-path="url(#a)"><ellipse cx="219.46" cy="110.53" fill="#cbc6c1" opacity=".3" rx="49.47" ry="46.35" transform="matrix(.159 -.9873 .9873 .159 75.4477 309.6336)"/></g><g fill="#726b65"><path d="m220.8 56.72h19.07v4.54h-19.07z" transform="matrix(.2078 -.9782 .9782 .2078 124.7612 272.0363)"/><path d="m171.91 115.71-6.24-2.68c-2.14-.92-3.47-3.08-3.33-5.41l.33-5.82c.14-2.33 1.71-4.32 3.95-4.99l6.5-1.95z"/><path d="m260.67 134.56 6.74.08c2.33.03 4.43-1.4 5.25-3.58l2.07-5.51c.82-2.18.2-4.64-1.57-6.16l-5.09-4.39z"/></g><circle cx="219.86" cy="108.26" fill="#ece5e0" r="49.47"/><circle cx="233.44" cy="44.33" fill="#ef6a37" r="7.26"/><ellipse cx="234.51" cy="39.65" fill="#fff" opacity=".4" rx="1.22" ry="2.02" transform="matrix(.1758 -.9844 .9844 .1758 154.2584 263.5405)"/><path d="m232.81 48.64c-3.01-.64-5.47-2.8-6.49-5.71-.76 3.93 1.82 7.74 5.75 8.5 3.5.67 6.97-1.3 8.19-4.65-2.06 1.73-4.81 2.41-7.45 1.86z" fill="#df5b36"/><g clip-path="url(#b)" opacity=".3"><path d="m277.05 120.72s-60.29 27.85-117.36-18.44l-4.33 56.44 132.97 2.23z" fill="#ece5e0"/></g><path d="m258.24 121.98c-3.38 15.94-24.77 29.54-46.59 24.91-21.82-4.64-35.82-25.75-32.44-41.69s7.02-28.66 45.63-20.47c36.86 7.85 36.78 21.32 33.4 37.25z" fill="#b2cad4"/><path d="m201.75 91.95c2.86-1.92.28-6.67-3.08-5.86-9.95 2.24-13.64 10.59-15.69 20.18-1.23 5.78.08 12.32 3.36 18.35.24.46.81.64 1.27.4.34-.18.53-.54.5-.92-.83-12.43 1.04-23.66 13.64-32.15z" fill="#eff3f7" opacity=".34"/><ellipse cx="307.38" cy="134.92" fill="#fff" opacity=".4" rx="4.86" ry="2.83" transform="matrix(.878 -.4786 .4786 .878 -27.0852 163.5613)"/><g transform="translate(191 4)"><g clip-rule="evenodd" fill-rule="evenodd"><path d="m169.1 144.56c-22.16-3.76-37.07-24.77-33.31-46.93s24.77-37.07 46.93-33.31 37.07 24.77 33.31 46.93c-3.77 22.16-24.78 37.08-46.93 33.31m19.99-117.73c-42.87-7.28-83.52 21.57-90.79 64.44s21.57 83.52 64.44 90.79c42.87 7.28 83.52-21.57 90.79-64.44 7.27-42.86-21.58-83.51-64.44-90.79" fill="#fff"/><path d="m163.92 175.09c-39.01-6.62-65.27-43.62-58.65-82.63s43.62-65.27 82.63-58.65 65.27 43.62 58.65 82.63c-6.63 39.01-43.62 65.27-82.63 58.65m25.17-148.26c-42.87-7.28-83.52 21.57-90.79 64.44s21.57 83.52 64.44 90.79c42.87 7.28 83.52-21.57 90.79-64.44 7.27-42.86-21.58-83.51-64.44-90.79" fill="#e0e0e0" fill-opacity=".15"/><path d="m169.1 144.56c-22.16-3.76-37.07-24.77-33.31-46.93s24.77-37.07 46.93-33.31 37.07 24.77 33.31 46.93c-3.77 22.16-24.78 37.08-46.93 33.31m14.8-87.21c-26.01-4.42-50.67 13.09-55.09 39.1s13.09 50.67 39.1 55.09 50.67-13.09 55.09-39.1-13.09-50.67-39.1-55.09" fill="#e0e0e0" opacity=".34"/><path d="m138.75 111.96-39.86-3.55c-2.33-.21-4-2.35-3.61-4.65l4.29-25.27c.39-2.3 2.67-3.77 4.94-3.2l38.8 9.8z" fill="#ff6c37"/><path d="m133.4 11.94-28.94-7.34c-2.27-.58-4.55.91-4.95 3.23l-4.32 25.46c-.39 2.31 1.27 4.47 3.61 4.68l29.74 2.63c-.67-4.76-.64-9.71.21-14.71.84-5 2.44-9.68 4.65-13.95" fill="#ff6c37" mask="url(#c)" transform="translate(0 71)"/><path d="m140.48 84.67-7.07-1.79c-2.21 4.29-3.81 8.99-4.67 14.01-.85 5.02-.89 9.98-.22 14.77l7.27.64 2.85.25 4.61-27.17z" fill="#ef4104"/><path d="m168.4 67.28 3.55-39.86c.21-2.33 2.35-4 4.65-3.61l25.27 4.29c2.3.39 3.77 2.67 3.2 4.94l-9.8 38.8z" fill="#ff6c37"/><path d="m127.29 62.08 7.33-28.94c.58-2.27-.91-4.55-3.23-4.95l-25.46-4.32c-2.31-.39-4.47 1.27-4.68 3.61l-2.63 29.74c4.76-.67 9.71-.64 14.71.21 5.01.85 9.69 2.45 13.96 4.65" fill="#ff6c37" mask="url(#d)" transform="translate(71)"/><path d="m196.56 69.17 1.79-7.07c-4.29-2.21-8.99-3.81-14.01-4.67-5.02-.85-9.98-.89-14.77-.22l-.64 7.27-.25 2.85 27.17 4.61z" fill="#ef4104"/><path d="m213.07 96.94 39.86 3.55c2.33.21 4 2.35 3.61 4.65l-4.29 25.27c-.39 2.3-2.67 3.77-4.94 3.2l-38.8-9.8z" fill="#ff6c37"/><path d="m77.27 55.83 28.94 7.33c2.27.58 4.55-.91 4.95-3.22l4.32-25.46c.39-2.31-1.27-4.47-3.61-4.68l-29.74-2.63c.67 4.76.64 9.71-.21 14.71s-2.44 9.68-4.65 13.95" fill="#ff6c37" mask="url(#e)" transform="translate(141 71)"/><path d="m211.19 125.1 7.07 1.79c2.21-4.29 3.81-8.99 4.67-14.01.85-5.02.89-9.98.22-14.77l-7.27-.64-2.85-.25-4.61 27.17z" fill="#ef4104"/><path d="m183.42 141.61-3.55 39.86c-.21 2.33-2.35 4-4.65 3.61l-25.27-4.29c-2.3-.39-3.77-2.67-3.2-4.94l9.8-38.8z" fill="#ff6c37"/><path d="m83.4 5.96-7.33 28.94c-.58 2.27.91 4.55 3.23 4.95l25.46 4.32c2.31.39 4.47-1.27 4.68-3.61l2.63-29.74c-4.76.67-9.71.64-14.71-.21-5.01-.84-9.69-2.45-13.96-4.65" fill="#ff6c37" mask="url(#f)" transform="translate(71 141)"/><path d="m156.13 139.88-1.79 7.07c4.29 2.21 8.99 3.81 14.01 4.67 5.02.85 9.98.89 14.77.22l.64-7.27.25-2.85-27.17-4.61z" fill="#ef4104"/></g><path d="m185.99 42.46c1.44.25 2.42 1.62 2.17 3.06s-1.62 2.42-3.06 2.17c-2.24-.38-4.48-.63-6.72-.74-1.46-.07-2.59-1.32-2.52-2.79s1.32-2.59 2.79-2.52c2.44.13 4.89.4 7.34.82zm-45.83 10.12c1.21-.83 2.86-.53 3.69.68s.53 2.86-.68 3.69c-1.86 1.28-3.64 2.67-5.33 4.16-1.1.97-2.78.86-3.75-.24s-.86-2.78.24-3.75c1.86-1.62 3.81-3.14 5.83-4.54zm-25.78 39.21c.28-1.44 1.68-2.37 3.12-2.09s2.37 1.68 2.09 3.12c-.1.52-.2 1.04-.29 1.56-.29 1.72-.5 3.43-.64 5.15-.12 1.46-1.39 2.55-2.85 2.44-1.46-.12-2.55-1.39-2.44-2.85.15-1.87.38-3.75.7-5.62.09-.58.2-1.14.31-1.71zm8.85 46.08c-.8-1.23-.45-2.87.78-3.67s2.87-.45 3.67.78c1.23 1.89 2.57 3.71 4.01 5.45.94 1.13.78 2.8-.34 3.74s-2.8.78-3.74-.34c-1.58-1.9-3.04-3.89-4.38-5.96zm38.47 26.87c-1.43-.32-2.33-1.75-2-3.17.32-1.43 1.75-2.33 3.17-2 1.03.23 2.06.44 3.11.62 1.2.2 2.39.37 3.58.49 1.46.16 2.51 1.46 2.36 2.92-.16 1.46-1.46 2.51-2.92 2.36-1.3-.14-2.6-.32-3.9-.54-1.15-.2-2.28-.42-3.4-.68zm46.31-7.56c-1.25.76-2.88.37-3.65-.88-.76-1.25-.37-2.88.88-3.65 1.93-1.18 3.78-2.46 5.56-3.86 1.15-.91 2.82-.7 3.73.45s.7 2.82-.45 3.73c-1.94 1.52-3.96 2.93-6.07 4.21zm27.94-37.71c-.36 1.42-1.81 2.28-3.23 1.91-1.42-.36-2.28-1.81-1.91-3.23.39-1.53.72-3.08.99-4.65.12-.68.22-1.35.31-2.01.2-1.45 1.53-2.47 2.98-2.28 1.45.2 2.47 1.53 2.28 2.98-.1.73-.21 1.45-.33 2.2-.31 1.72-.67 3.41-1.09 5.08zm-6.27-46.5c.73 1.27.29 2.89-.98 3.62s-2.89.29-3.62-.98c-1.12-1.96-2.36-3.85-3.7-5.66-.87-1.18-.63-2.84.55-3.71s2.84-.63 3.71.55c1.46 1.97 2.81 4.04 4.04 6.18zm-36.92-28.98c1.41.4 2.23 1.87 1.82 3.28-.4 1.41-1.87 2.22-3.28 1.82-2.02-.58-4.08-1.05-6.18-1.4-1.44-.25-2.42-1.62-2.17-3.06s1.62-2.42 3.06-2.17c2.29.39 4.54.9 6.75 1.53z" fill="#e0e0e0" opacity=".129"/></g><g clip-rule="evenodd" fill-rule="evenodd"><path d="m458.6 150.88-3.36 9.18-9.18 3.36 9.18 3.36 3.36 9.19 3.36-9.19 9.19-3.36-9.19-3.36z" fill="#f36c3d"/><path d="m343.13 245.95-3.36 9.18-9.18 3.36 9.18 3.36 3.36 9.19 3.36-9.19 9.19-3.36-9.19-3.36z" fill="#6d7f91"/><path d="m122.67 87.05-3.36 9.18-9.18 3.36 9.18 3.36 3.36 9.19 3.36-9.19 9.19-3.36-9.19-3.36z" fill="#7d728e"/><path d="m277.2 16.32-3.06 8.37-8.37 3.06 8.37 3.06 3.06 8.37 3.06-8.37 8.37-3.06-8.37-3.06z" fill="#cddce6"/></g></svg>